<?xml version="1.0" encoding="UTF-8" standalone="no"?>
<!-- Created with Inkscape (http://www.inkscape.org/) -->

<svg
   xmlns:dc="http://purl.org/dc/elements/1.1/"
   xmlns:cc="http://creativecommons.org/ns#"
   xmlns:rdf="http://www.w3.org/1999/02/22-rdf-syntax-ns#"
   xmlns:svg="http://www.w3.org/2000/svg"
   xmlns="http://www.w3.org/2000/svg"
   xmlns:sodipodi="http://sodipodi.sourceforge.net/DTD/sodipodi-0.dtd"
   xmlns:inkscape="http://www.inkscape.org/namespaces/inkscape"
   width="1052.3622"
   height="744.09448"
   id="svg2"
   version="1.1"
   inkscape:version="0.48.4 r9939"
   sodipodi:docname="watch.svg">
  <defs
     id="defs4" />
  <sodipodi:namedview
     id="base"
     pagecolor="#ffffff"
     bordercolor="#666666"
     borderopacity="1.0"
     inkscape:pageopacity="0.0"
     inkscape:pageshadow="2"
     inkscape:zoom="1.9119868"
     inkscape:cx="473.41556"
     inkscape:cy="401.1018"
     inkscape:document-units="px"
     inkscape:current-layer="layer1"
     showgrid="false"
     inkscape:window-width="1360"
     inkscape:window-height="702"
     inkscape:window-x="0"
     inkscape:window-y="27"
     inkscape:window-maximized="1" />
  <metadata
     id="metadata7">
    <rdf:RDF>
      <cc:Work
         rdf:about="">
        <dc:format>image/svg+xml</dc:format>
        <dc:type
           rdf:resource="http://purl.org/dc/dcmitype/StillImage" />
        <dc:title></dc:title>
      </cc:Work>
    </rdf:RDF>
  </metadata>
  <g
     inkscape:label="Layer 1"
     inkscape:groupmode="layer"
     id="layer1"
     transform="translate(0,-308.2677)">
    <path
       style="fill:#000000;fill-opacity:1;fill-rule:nonzero;stroke:none"
       d="m 391.57555,533.11935 c -9.78316,0 -17.65254,6.79591 -17.65254,15.24453 l 0,175.13862 c 0,8.44863 7.86938,15.24453 17.65254,15.24453 l 148.46868,0 c 9.78316,0 17.65254,-6.7959 17.65254,-15.24453 l 0,-175.13862 c 0,-8.44862 -7.86938,-15.24453 -17.65254,-15.24453 l -148.46868,0 z m 9.14182,13.72503 128.96102,0 c 8.49808,0 15.3384,5.90723 15.3384,13.24606 l 0,152.11493 c 0,7.33884 -6.84032,13.24606 -15.3384,13.24606 l -128.96102,0 c -8.49806,0 -15.33838,-5.90722 -15.33838,-13.24606 l 0,-152.11493 c 0,-7.33883 6.84032,-13.24606 15.33838,-13.24606 z"
       id="rect2985"
       inkscape:connector-curvature="0" />
    <path
       style="fill:#000000;fill-opacity:1;fill-rule:nonzero;stroke:none"
       d="m 412.14824,389.62993 107.46774,0 15.15571,140.53475 -140.53474,0 z"
       id="rect3758"
       inkscape:connector-curvature="0"
       sodipodi:nodetypes="ccccc" />
    <path
       sodipodi:nodetypes="ccccc"
       inkscape:connector-curvature="0"
       id="path3761"
       d="m 412.14824,883.72051 107.46774,0 15.15571,-140.53475 -140.53474,0 z"
       style="fill:#000000;fill-opacity:1;fill-rule:nonzero;stroke:none" />
    <rect
       style="fill:#000000;fill-opacity:1;fill-rule:nonzero;stroke:none"
       id="rect3763"
       width="13.313818"
       height="21.54221"
       x="551.78381"
       y="587.85791"
       ry="6.656909" />
    <rect
       ry="6.656909"
       y="664.78217"
       x="551.78381"
       height="21.54221"
       width="13.313818"
       id="rect3765"
       style="fill:#000000;fill-opacity:1;fill-rule:nonzero;stroke:none" />
    <rect
       style="fill:#000000;fill-opacity:1;fill-rule:nonzero;stroke:none"
       id="rect3769"
       width="4.8881645"
       height="73.965652"
       x="458.58704"
       y="621.88208"
       ry="1.6079487" />
    <rect
       ry="1.7365847"
       y="-120.82018"
       x="-779.57263"
       height="79.882904"
       width="4.8881645"
       id="rect3771"
       style="fill:#000000;fill-opacity:1;fill-rule:nonzero;stroke:none"
       transform="matrix(-0.69129326,-0.72257431,0.72257431,-0.69129326,0,0)" />
    <path
       sodipodi:type="arc"
       style="fill:#000000;fill-opacity:1;fill-rule:nonzero;stroke:none"
       id="path3773"
       sodipodi:cx="47.071453"
       sodipodi:cy="351.83237"
       sodipodi:rx="6.2761941"
       sodipodi:ry="6.2761941"
       d="m 53.347647,351.83237 a 6.2761941,6.2761941 0 1 1 -12.552388,0 6.2761941,6.2761941 0 1 1 12.552388,0 z"
       transform="translate(413.70578,283.16293)" />
  </g>
</svg>
